<?xml version="1.0"?>
<svg version="1.1" xmlns="http://www.w3.org/2000/svg" xmlns:xlink="http://www.w3.org/1999/xlink" width="1024" height="1024">
    <desc iVinci="yes" version="4.6" gridStep="20" showGrid="yes" snapToGrid="yes" codePlatform="0"/>
    <g id="Layer1" name="Layer 1" opacity="1">
        <g id="Shape1">
            <desc shapeID="1" type="0" basicInfo-basicType="0" basicInfo-roundedRectRadius="12" basicInfo-polygonSides="6" basicInfo-starPoints="5" bounding="rect(-512,-499.376,1024,998.752)" text="" font-familyName="" font-pixelSize="20" font-bold="0" font-underline="0" font-alignment="1" strokeStyle="0" markerStart="0" markerEnd="0" shadowEnabled="0" shadowOffsetX="0" shadowOffsetY="2" shadowBlur="4" shadowOpacity="160" blurEnabled="0" blurRadius="4" transform="matrix(1,0,0,1,512,499.376)" pers-center="0,0" pers-size="0,0" pers-start="0,0" pers-end="0,0" locked="0" mesh="" flag=""/>
            <path id="shapePath1" d="M512,0 C229.25,0 0,229.25 0,512 C0,738.25 146.688,930.125 350.156,997.812 C375.75,1002.5 385.094,986.687 385.094,973.187 C385.094,960.999 384.625,920.625 384.375,877.875 C242,908.812 211.906,817.5 211.906,817.5 C188.594,758.375 155.062,742.625 155.062,742.625 C108.531,710.875 158.592,711.5 158.592,711.5 C209.998,715.062 237.062,764.25 237.062,764.25 C282.75,842.5 356.937,819.875 386.062,806.75 C390.716,773.75 403.966,751.125 418.562,738.375 C304.906,725.438 185.344,681.5 185.344,485.312 C185.344,429.374 205.313,383.75 238,347.906 C232.781,334.906 215.156,282.812 243.062,212.344 C243.062,212.344 286,198.594 383.874,264.844 C424.686,253.438 468.468,247.813 511.999,247.625 C555.499,247.813 599.311,253.5 640.187,264.906 C737.875,198.594 780.875,212.406 780.875,212.406 C808.875,282.937 791.25,334.968 786,347.906 C818.812,383.75 838.625,429.375 838.625,485.312 C838.625,682 718.875,725.312 604.813,738 C623.251,753.875 639.563,785 639.563,832.75 C639.563,901.188 638.875,956.375 638.875,973.25 C638.875,986.875 648.187,1002.81 674.125,997.812 C877.438,930 1024,738.125 1024,512 C1024,229.25 794.75,0 512,0 Z" style="stroke:none;fill-rule:nonzero;fill:#ffffff;fill-opacity:1;"/>
        </g>
    </g>
</svg>
