<?xml version="1.0"?>
<svg version="1.1" xmlns="http://www.w3.org/2000/svg" xmlns:xlink="http://www.w3.org/1999/xlink" width="512" height="512">
    <desc iVinci="yes" version="4.6" gridStep="20" showGrid="no" snapToGrid="no" codePlatform="0"/>
    <g id="Layer1" name="Layer 1" opacity="1">
        <g id="Shape1">
            <desc shapeID="1" type="0" basicInfo-basicType="0" basicInfo-roundedRectRadius="12" basicInfo-polygonSides="6" basicInfo-starPoints="5" bounding="rect(-206,-206,412,412)" text="" font-familyName="" font-pixelSize="20" font-bold="0" font-underline="0" font-alignment="1" strokeStyle="0" markerStart="0" markerEnd="0" shadowEnabled="0" shadowOffsetX="0" shadowOffsetY="2" shadowBlur="4" shadowOpacity="160" blurEnabled="0" blurRadius="4" transform="matrix(1.24272,0,0,1.24272,256,256)" pers-center="0,0" pers-size="0,0" pers-start="0,0" pers-end="0,0" locked="0" mesh="" flag=""/>
            <path id="shapePath1" d="M256,49.7087 C311.102,49.7087 362.906,71.1667 401.87,110.13 C440.834,149.094 462.291,200.898 462.291,256 C462.291,311.102 440.833,362.906 401.87,401.87 C362.906,440.833 311.102,462.291 256,462.291 C200.898,462.291 149.094,440.832 110.13,401.87 C71.1655,362.906 49.7087,311.102 49.7087,256 C49.7087,200.898 71.1667,149.094 110.13,110.13 C149.094,71.1667 200.898,49.7087 256,49.7087 M256,0 C114.615,0 -3.05176e-05,114.615 -3.05176e-05,256 C-3.05176e-05,397.385 114.615,512 256,512 C397.385,512 512,397.385 512,256 C512,114.615 397.385,0 256,0 M203.01,156.29 C203.01,172.02 190.361,184.771 174.76,184.771 C159.156,184.771 146.508,172.02 146.508,156.29 C146.508,140.56 159.157,127.81 174.76,127.81 C190.362,127.81 203.01,140.56 203.01,156.29 M198.875,204.985 L151.101,204.985 L151.101,359.337 L198.875,359.337 L198.875,204.985 M275.246,204.985 L229.423,204.985 L229.423,359.337 L275.246,359.337 C275.246,359.337 275.246,302.086 275.246,278.314 C275.246,256.608 285.237,243.688 304.36,243.688 C321.932,243.688 330.373,256.093 330.373,278.314 C330.373,300.537 330.373,359.337 330.373,359.337 L377.918,359.337 C377.918,359.337 377.918,302.947 377.918,261.602 C377.918,220.259 354.489,200.275 321.76,200.275 C289.03,200.275 275.247,225.772 275.247,225.772 L275.247,204.985 L275.246,204.985 Z" style="stroke:none;fill-rule:nonzero;fill:#ffffff;fill-opacity:1;"/>
        </g>
    </g>
</svg>
